<?xml version="1.0" encoding="UTF-8" standalone="no"?>
<!-- Created with Inkscape (http://www.inkscape.org/) -->

<svg
   width="90mm"
   height="70mm"
   viewBox="0 0 90 70"
   version="1.1"
   id="svg1"
   inkscape:version="1.3 (0e150ed6c4, 2023-07-21)"
   sodipodi:docname="detuning.svg"
   inkscape:export-filename="detuning.png"
   inkscape:export-xdpi="106.96223"
   inkscape:export-ydpi="106.96223"
   xmlns:inkscape="http://www.inkscape.org/namespaces/inkscape"
   xmlns:sodipodi="http://sodipodi.sourceforge.net/DTD/sodipodi-0.dtd"
   xmlns="http://www.w3.org/2000/svg"
   xmlns:svg="http://www.w3.org/2000/svg">
  <sodipodi:namedview
     id="namedview1"
     pagecolor="#ffffff"
     bordercolor="#000000"
     borderopacity="0.25"
     inkscape:showpageshadow="2"
     inkscape:pageopacity="0.0"
     inkscape:pagecheckerboard="0"
     inkscape:deskcolor="#d1d1d1"
     inkscape:document-units="mm"
     inkscape:zoom="0.97890839"
     inkscape:cx="37.286431"
     inkscape:cy="152.72113"
     inkscape:window-width="1920"
     inkscape:window-height="991"
     inkscape:window-x="-9"
     inkscape:window-y="-9"
     inkscape:window-maximized="1"
     inkscape:current-layer="layer1" />
  <defs
     id="defs1">
    <marker
       style="overflow:visible"
       id="Triangle-9"
       refX="0"
       refY="0"
       orient="auto-start-reverse"
       inkscape:stockid="Triangle arrow"
       markerWidth="1"
       markerHeight="1"
       viewBox="0 0 1 1"
       inkscape:isstock="true"
       inkscape:collect="always"
       preserveAspectRatio="xMidYMid">
      <path
         transform="scale(0.5)"
         style="fill:context-stroke;fill-rule:evenodd;stroke:context-stroke;stroke-width:1pt"
         d="M 5.77,0 -2.88,5 V -5 Z"
         id="path135-7" />
    </marker>
    <marker
       style="overflow:visible"
       id="Triangle-9-2"
       refX="0"
       refY="0"
       orient="auto-start-reverse"
       inkscape:stockid="Triangle arrow"
       markerWidth="1"
       markerHeight="1"
       viewBox="0 0 1 1"
       inkscape:isstock="true"
       inkscape:collect="always"
       preserveAspectRatio="xMidYMid">
      <path
         transform="scale(0.5)"
         style="fill:context-stroke;fill-rule:evenodd;stroke:context-stroke;stroke-width:1pt"
         d="M 5.77,0 -2.88,5 V -5 Z"
         id="path135-7-3" />
    </marker>
    <clipPath
       id="clipPath6819-5">
      <path
         clip-rule="nonzero"
         d="M 1,0 H 9 V 20.664063 H 1 Z m 0,0"
         id="path1081-8" />
    </clipPath>
    <marker
       style="overflow:visible"
       id="Triangle"
       refX="0"
       refY="0"
       orient="auto-start-reverse"
       inkscape:stockid="Triangle arrow"
       markerWidth="1.3"
       markerHeight="1.3"
       viewBox="0 0 1 1"
       inkscape:isstock="true"
       inkscape:collect="always"
       preserveAspectRatio="xMidYMid">
      <path
         transform="scale(0.5)"
         style="fill:context-stroke;fill-rule:evenodd;stroke:context-stroke;stroke-width:1pt"
         d="M 5.77,0 -2.88,5 V -5 Z"
         id="path135" />
    </marker>
    <marker
       style="overflow:visible"
       id="Triangle-9-8"
       refX="0"
       refY="0"
       orient="auto-start-reverse"
       inkscape:stockid="Triangle arrow"
       markerWidth="1"
       markerHeight="1"
       viewBox="0 0 1 1"
       inkscape:isstock="true"
       inkscape:collect="always"
       preserveAspectRatio="xMidYMid">
      <path
         transform="scale(0.5)"
         style="fill:context-stroke;fill-rule:evenodd;stroke:context-stroke;stroke-width:1pt"
         d="M 5.77,0 -2.88,5 V -5 Z"
         id="path135-7-9" />
    </marker>
    <marker
       style="overflow:visible"
       id="Triangle-2-9-7"
       refX="0"
       refY="0"
       orient="auto-start-reverse"
       inkscape:stockid="Triangle arrow"
       markerWidth="1"
       markerHeight="1"
       viewBox="0 0 1 1"
       inkscape:isstock="true"
       inkscape:collect="always"
       preserveAspectRatio="xMidYMid">
      <path
         transform="scale(0.5)"
         style="fill:context-stroke;fill-rule:evenodd;stroke:context-stroke;stroke-width:1pt"
         d="M 5.77,0 -2.88,5 V -5 Z"
         id="path135-5-4-7" />
    </marker>
    <clipPath
       id="clipPath7300-7-5-5">
      <path
         clip-rule="nonzero"
         d="M 2,0 H 19 V 17.214844 H 2 Z m 0,0"
         id="path3882-5-0-75" />
    </clipPath>
    <clipPath
       id="clipPath6908-8-4-1">
      <path
         clip-rule="nonzero"
         d="M 2,0 H 19 V 17.214844 H 2 Z m 0,0"
         id="path389-3-8-5" />
    </clipPath>
  </defs>
  <g
     inkscape:label="Layer 1"
     inkscape:groupmode="layer"
     id="layer1">
    <path
       style="fill:#ff0000;fill-opacity:0.8;stroke:#0c2c84;stroke-width:1.11162;stroke-dasharray:none;stroke-dashoffset:0;stroke-opacity:1"
       d="m 17.097962,18.031876 c 13.663621,-0.03966 13.663621,-0.03966 13.663621,-0.03966"
       id="path5" />
    <path
       style="fill:#ff0000;fill-opacity:0.8;stroke:#0c2c84;stroke-width:1.11293;stroke-dasharray:none;stroke-dashoffset:0;stroke-opacity:1"
       d="m 16.847133,39.015335 c 13.843631,-0.03957 13.843631,-0.03957 13.843631,-0.03957"
       id="path5-3" />
    <path
       style="fill:#ff0000;fill-opacity:1;stroke:#ff0000;stroke-width:0.681857;stroke-dasharray:none;stroke-opacity:1;marker-start:url(#Triangle-9);marker-end:url(#Triangle-9)"
       d="M 23.988816,36.480733 C 23.933288,20.140504 23.933288,20.140504 23.933288,20.140504"
       id="path3-2" />
    <path
       style="fill:#ff0000;fill-opacity:0.8;stroke:#0c2c84;stroke-width:1.12833;stroke-dasharray:none;stroke-dashoffset:0;stroke-opacity:1"
       d="m 35.80932,27.067688 c 14.238875,-0.03959 14.238875,-0.03959 14.238875,-0.03959"
       id="path5-4" />
    <path
       style="fill:#ff0000;fill-opacity:0.8;stroke:#0c2c84;stroke-width:1.11959;stroke-dasharray:none;stroke-dashoffset:0;stroke-opacity:1"
       d="m 35.890264,38.843419 c 14.215199,-0.03953 14.215199,-0.03953 14.215199,-0.03953"
       id="path5-3-2" />
    <path
       style="fill:#ff0000;fill-opacity:1;stroke:#ff0000;stroke-width:0.753466;stroke-dasharray:none;stroke-opacity:1;marker-start:url(#Triangle-9-2);marker-end:url(#Triangle-9-2)"
       d="M 42.768796,36.148239 C 42.572722,30.410841 42.572722,30.410841 42.572722,30.410841"
       id="path3-2-0" />
    <g
       inkscape:label=""
       transform="matrix(0.80445508,0,0,2.9405602,12.863616,17.514773)"
       id="g7649">
      <g
         clip-path="url(#clipPath6819-5)"
         id="g7647"
         transform="matrix(0.352778,0,0,0.352778,-0.523655,0.00105843)">
        <g
           fill="#000000"
           fill-opacity="1"
           id="g7645">
          <g
             id="g7643"
             transform="translate(0,15.497)">
            <path
               d="m 5.84375,-12.75 c 0,-0.828125 0.53125,-2.140625 2.796875,-2.28125 C 8.734375,-15.0625 8.8125,-15.140625 8.8125,-15.265625 8.8125,-15.5 8.65625,-15.5 8.421875,-15.5 c -2.0625,0 -3.9375,1.0625 -3.953125,2.59375 v 4.703125 c 0,0.8125 0,1.46875 -0.828125,2.15625 -0.734375,0.59375 -1.515625,0.640625 -1.96875,0.65625 -0.109375,0.015625 -0.1875,0.109375 -0.1875,0.21875 0,0.21875 0.125,0.21875 0.328125,0.234375 1.375,0.078125 2.359375,0.828125 2.59375,1.84375 0.0625,0.21875 0.0625,0.265625 0.0625,1 V 2 c 0,0.875 0,1.53125 0.984375,2.3125 0.8125,0.625 2.171875,0.859375 2.96875,0.859375 0.234375,0 0.390625,0 0.390625,-0.234375 C 8.8125,4.734375 8.703125,4.734375 8.484375,4.703125 7.1875,4.625 6.171875,3.96875 5.90625,2.90625 5.84375,2.734375 5.84375,2.6875 5.84375,1.9375 v -4.328125 c 0,-0.953125 -0.15625,-1.3125 -0.828125,-1.96875 C 4.578125,-4.796875 3.984375,-5 3.40625,-5.171875 5.109375,-5.640625 5.84375,-6.59375 5.84375,-7.78125 Z m 0,0"
               id="path7641" />
          </g>
        </g>
      </g>
    </g>
    <path
       style="fill:#1a1a1a;fill-opacity:1;stroke:#1a1a1a;stroke-width:0.57247;stroke-dasharray:none;stroke-opacity:1;marker-end:url(#Triangle)"
       d="m 5.0136397,58.289947 c 68.5967733,0 68.5967733,0 68.5967733,0"
       id="path9" />
    <path
       style="fill:#1a1a1a;fill-opacity:1;stroke:#1a1a1a;stroke-width:0.759306;stroke-dasharray:1.51861, 0.759306;stroke-dashoffset:0;stroke-opacity:1"
       d="M 13.389074,55.946199 V 42.010181"
       id="path16" />
    <path
       style="fill:#1a1a1a;fill-opacity:1;stroke:#1a1a1a;stroke-width:0.759306;stroke-dasharray:none;stroke-dashoffset:0;stroke-opacity:1"
       d="M 13.092441,42.383767 H 33.3385"
       id="path17" />
    <g
       inkscape:label=""
       transform="matrix(1.3812953,0,0,1.3812953,71.166749,48.44988)"
       id="g20">
      <g
         fill="#000000"
         fill-opacity="1"
         id="g19"
         transform="matrix(0.352778,0,0,0.352778,-2.3447432,7.3329559)">
        <g
           id="g18"
           transform="translate(1.993,12.581)">
          <path
             d="m 3.46875,-6.921875 h 1.578125 c 0.328125,0 0.5,0 0.5,-0.3125 0,-0.1875 -0.109375,-0.1875 -0.453125,-0.1875 H 3.578125 L 4.21875,-9.9375 c 0.0625,-0.234375 0.0625,-0.265625 0.0625,-0.390625 0,-0.28125 -0.21875,-0.4375 -0.4375,-0.4375 -0.140625,0 -0.53125,0.0625 -0.671875,0.609375 L 2.5,-7.421875 H 0.875 c -0.34375,0 -0.5,0 -0.5,0.328125 0,0.171875 0.125,0.171875 0.453125,0.171875 h 1.53125 L 1.21875,-2.375 c -0.140625,0.59375 -0.1875,0.78125 -0.1875,1 0,0.8125 0.5625,1.546875 1.53125,1.546875 1.75,0 2.671875,-2.515625 2.671875,-2.640625 0,-0.09375 -0.0625,-0.15625 -0.171875,-0.15625 -0.03125,0 -0.109375,0 -0.140625,0.078125 -0.015625,0.015625 -0.03125,0.03125 -0.15625,0.3125 -0.359375,0.859375 -1.15625,2.0625 -2.140625,2.0625 -0.53125,0 -0.5625,-0.4375 -0.5625,-0.8125 0,-0.015625 0,-0.34375 0.0625,-0.546875 z m 0,0"
             id="path18" />
        </g>
      </g>
      <g
         inkscape:label=""
         transform="translate(-24.936801,-2.7373689)"
         id="g3"
         style="fill:#000000;fill-opacity:1;stroke:none;stroke-opacity:1">
        <g
           fill="#000000"
           fill-opacity="1"
           id="g2"
           transform="matrix(0.352778,0,0,0.352778,-0.846402,-0.735233)"
           style="fill:#000000;fill-opacity:1;stroke:none;stroke-opacity:1">
          <g
             id="use1"
             transform="translate(1.993,13.756)"
             style="fill:#000000;fill-opacity:1;stroke:none;stroke-opacity:1">
            <path
               d="m 7.1875,-10.5 c 0.09375,-0.421875 0.125,-0.578125 0.390625,-0.640625 0.140625,-0.03125 0.703125,-0.03125 1.0625,-0.03125 1.71875,0 2.53125,0.0625 2.53125,1.40625 0,0.265625 -0.0625,0.921875 -0.171875,1.546875 L 10.984375,-8 c 0,0.0625 0.0625,0.171875 0.171875,0.171875 0.171875,0 0.171875,-0.09375 0.21875,-0.375 l 0.5,-3.046875 c 0.04687,-0.15625 0.04687,-0.1875 0.04687,-0.234375 0,-0.1875 -0.109375,-0.1875 -0.453125,-0.1875 h -9.42187 c -0.390625,0 -0.40625,0.01563 -0.515625,0.328125 L 0.484375,-8.25 C 0.46875,-8.21875 0.40625,-8.03125 0.40625,-8 c 0,0.078125 0.078125,0.171875 0.171875,0.171875 0.140625,0 0.171875,-0.078125 0.25,-0.296875 0.71875,-2.078125 1.078125,-3.046875 3.375,-3.046875 h 1.15625 c 0.40625,0 0.578125,0 0.578125,0.1875 0,0.04687 0,0.07813 -0.078125,0.390625 l -2.3125,9.25 C 3.375,-0.671875 3.34375,-0.5 1.515625,-0.5 1.078125,-0.5 0.96875,-0.5 0.96875,-0.171875 0.96875,0 1.15625,0 1.234375,0 1.671875,0 2.125,-0.03125 2.546875,-0.03125 h 2.6875 C 5.671875,-0.03125 6.125,0 6.5625,0 6.75,0 6.921875,0 6.921875,-0.328125 6.921875,-0.5 6.796875,-0.5 6.359375,-0.5 c -1.5625,0 -1.5625,-0.15625 -1.5625,-0.40625 0,-0.03125 0,-0.140625 0.078125,-0.421875 z m 0,0"
               id="path6"
               style="fill:#000000;fill-opacity:1;stroke:none;stroke-opacity:1" />
          </g>
        </g>
      </g>
    </g>
    <path
       style="fill:#ff0000;fill-opacity:0.8;stroke:#0c2c84;stroke-width:1.11162;stroke-dasharray:none;stroke-dashoffset:0;stroke-opacity:1"
       d="m 54.825197,17.811551 c 13.663635,-0.03966 13.663635,-0.03966 13.663635,-0.03966"
       id="path5-5" />
    <path
       style="fill:#ff0000;fill-opacity:0.8;stroke:#0c2c84;stroke-width:1.12833;stroke-dasharray:none;stroke-dashoffset:0;stroke-opacity:1"
       d="m 54.574064,38.794996 c 14.238875,-0.0395 14.238875,-0.0395 14.238875,-0.0395"
       id="path5-3-4" />
    <path
       style="fill:#ff0000;fill-opacity:1;stroke:#ff0000;stroke-width:0.681857;stroke-dasharray:none;stroke-opacity:1;marker-start:url(#Triangle-9-8);marker-end:url(#Triangle-9-8)"
       d="M 61.716065,36.260412 C 61.660537,19.920178 61.660537,19.920178 61.660537,19.920178"
       id="path3-2-8" />
    <g
       inkscape:label=""
       transform="matrix(1.3812953,0,0,1.3812953,10.765981,4.2854236)"
       id="g90">
      <g
         fill="#000000"
         fill-opacity="1"
         id="g8"
         transform="matrix(0.352778,0,0,0.352778,-0.890499,-0.703748)">
        <g
           id="g13"
           transform="translate(1.993,13.948)">
          <path
             d="M 3.78125,2.90625 C 2.6875,2.90625 2.625,2.84375 2.625,2.171875 v -3.21875 c 0.484375,0.71875 1.21875,1.1875 2.125,1.1875 1.71875,0 3.46875,-1.515625 3.46875,-3.859375 0,-2.171875 -1.5,-3.828125 -3.28125,-3.828125 -1.03125,0 -1.875,0.578125 -2.359375,1.265625 v -1.265625 l -2.046875,0.1875 v 0.453125 c 1.015625,0 1.171875,0.109375 1.171875,0.9375 v 8.140625 c 0,0.65625 -0.0625,0.734375 -1.171875,0.734375 v 0.453125 c 0.421875,-0.03125 1.171875,-0.03125 1.625,-0.03125 0.4375,0 1.21875,0 1.625,0.03125 z M 2.625,-5.40625 c 0,-0.234375 0,-0.609375 0.65625,-1.234375 0.09375,-0.078125 0.671875,-0.59375 1.546875,-0.59375 1.25,0 2.28125,1.5625 2.28125,3.53125 0,1.96875 -1.09375,3.5625 -2.453125,3.5625 -0.625,0 -1.296875,-0.296875 -1.8125,-1.09375 C 2.625,-1.625 2.625,-1.71875 2.625,-2 Z m 0,0"
             id="path13" />
        </g>
      </g>
      <g
         fill="#000000"
         fill-opacity="1"
         id="g29"
         transform="matrix(0.352778,0,0,0.352778,-0.890499,-0.703748)">
        <g
           id="g17"
           transform="translate(11.235948,13.948)">
          <path
             d="m 6.5625,-4.046875 c 0.0625,-0.0625 0.0625,-0.109375 0.0625,-0.28125 0,-1.75 -0.921875,-3.28125 -2.890625,-3.28125 -1.828125,0 -3.265625,1.734375 -3.265625,3.859375 0,2.234375 1.625,3.890625 3.453125,3.890625 1.9375,0 2.6875,-1.828125 2.6875,-2.1875 0,-0.125 -0.09375,-0.125 -0.140625,-0.125 -0.109375,0 -0.125,0.03125 -0.203125,0.25 -0.375,1.171875 -1.328125,1.75 -2.21875,1.75 C 3.3125,-0.171875 2.5625,-0.578125 2.09375,-1.34375 1.5625,-2.21875 1.5625,-3.234375 1.5625,-4.046875 Z M 1.578125,-4.3125 c 0.125,-2.46875 1.453125,-3.015625 2.140625,-3.015625 1.171875,0 1.96875,1.09375 1.984375,3.015625 z m 0,0"
             id="path31" />
        </g>
        <g
           id="g21"
           transform="translate(18.232286,13.948)">
          <path
             d="m 2.578125,-4.0625 c 0,-1.65625 0.703125,-3.203125 2,-3.203125 0.125,0 0.25,0.015625 0.359375,0.0625 0,0 -0.375,0.125 -0.375,0.578125 0,0.40625 0.328125,0.578125 0.578125,0.578125 0.21875,0 0.59375,-0.125 0.59375,-0.59375 0,-0.5625 -0.546875,-0.90625 -1.140625,-0.90625 -1.3125,0 -1.875,1.28125 -2.046875,1.875 H 2.53125 v -1.875 l -2,0.1875 v 0.453125 c 1.015625,0 1.171875,0.109375 1.171875,0.9375 v 4.78125 c 0,0.65625 -0.0625,0.734375 -1.171875,0.734375 V 0 c 0.421875,-0.03125 1.203125,-0.03125 1.65625,-0.03125 0.5,0 1.375,0 1.84375,0.03125 v -0.453125 c -1.234375,0 -1.453125,0 -1.453125,-0.765625 z m 0,0"
             id="path32" />
        </g>
        <g
           id="use16"
           transform="translate(24.32826,13.948)">
          <path
             d="m 2.671875,-10.609375 c 0,-0.375 -0.3125,-0.703125 -0.703125,-0.703125 -0.390625,0 -0.71875,0.3125 -0.71875,0.703125 0,0.375 0.3125,0.703125 0.71875,0.703125 0.375,0 0.703125,-0.296875 0.703125,-0.703125 z m -2.015625,3.25 v 0.453125 c 0.96875,0 1.09375,0.109375 1.09375,0.9375 v 4.78125 c 0,0.65625 -0.0625,0.734375 -1.171875,0.734375 V 0 C 1,-0.03125 1.734375,-0.03125 2.171875,-0.03125 c 0.40625,0 1.109375,0 1.515625,0.03125 v -0.453125 c -1.015625,0 -1.046875,-0.09375 -1.046875,-0.71875 v -6.375 z m 0,0"
             id="path29" />
        </g>
        <g
           id="use17"
           transform="translate(28.625223,13.948)">
          <path
             d="m 7.421875,-3.6875 c 0,-2.203125 -1.609375,-3.921875 -3.484375,-3.921875 -1.875,0 -3.46875,1.71875 -3.46875,3.921875 0,2.171875 1.59375,3.828125 3.46875,3.828125 1.875,0 3.484375,-1.65625 3.484375,-3.828125 z M 3.9375,-0.171875 c -0.796875,0 -1.5,-0.484375 -1.890625,-1.15625 C 1.625,-2.09375 1.5625,-3.0625 1.5625,-3.828125 c 0,-0.71875 0.03125,-1.609375 0.484375,-2.390625 0.34375,-0.5625 1.015625,-1.109375 1.890625,-1.109375 0.78125,0 1.4375,0.421875 1.84375,1.03125 0.53125,0.796875 0.53125,1.9375 0.53125,2.46875 0,0.671875 -0.03125,1.703125 -0.5,2.53125 -0.46875,0.796875 -1.21875,1.125 -1.875,1.125 z m 0,0"
             id="path34" />
        </g>
      </g>
      <g
         fill="#000000"
         fill-opacity="1"
         id="g85"
         transform="matrix(0.352778,0,0,0.352778,-0.890499,-0.703748)">
        <g
           id="use18"
           transform="translate(36.967808,13.948)">
          <path
             d="m 5.03125,-11.765625 v 0.453125 c 1.015625,0 1.171875,0.109375 1.171875,0.921875 v 4.03125 C 6.125,-6.4375 5.421875,-7.546875 4.03125,-7.546875 c -1.765625,0 -3.46875,1.578125 -3.46875,3.84375 0,2.25 1.609375,3.84375 3.296875,3.84375 1.46875,0 2.21875,-1.140625 2.3125,-1.265625 V 0.140625 L 8.25,0 v -0.453125 c -1.015625,0 -1.171875,-0.09375 -1.171875,-0.921875 V -11.953125 Z M 6.171875,-2.0625 c 0,0.515625 -0.3125,0.984375 -0.71875,1.328125 -0.578125,0.515625 -1.171875,0.59375 -1.5,0.59375 -0.484375,0 -2.28125,-0.25 -2.28125,-3.546875 0,-3.375 2,-3.578125 2.4375,-3.578125 0.796875,0 1.4375,0.453125 1.828125,1.0625 0.234375,0.359375 0.234375,0.421875 0.234375,0.734375 z m 0,0"
             id="path35" />
        </g>
        <g
           id="use19"
           transform="translate(45.763153,13.948)">
          <path
             d="m 2.671875,-10.609375 c 0,-0.375 -0.3125,-0.703125 -0.703125,-0.703125 -0.390625,0 -0.71875,0.3125 -0.71875,0.703125 0,0.375 0.3125,0.703125 0.71875,0.703125 0.375,0 0.703125,-0.296875 0.703125,-0.703125 z m -2.015625,3.25 v 0.453125 c 0.96875,0 1.09375,0.109375 1.09375,0.9375 v 4.78125 c 0,0.65625 -0.0625,0.734375 -1.171875,0.734375 V 0 C 1,-0.03125 1.734375,-0.03125 2.171875,-0.03125 c 0.40625,0 1.109375,0 1.515625,0.03125 v -0.453125 c -1.015625,0 -1.046875,-0.09375 -1.046875,-0.71875 v -6.375 z m 0,0"
             id="path37" />
        </g>
        <g
           id="use20"
           transform="translate(50.06012,13.948)">
          <path
             d="m 6.015625,-6.03125 c -0.328125,0 -0.8125,0 -0.8125,0.609375 0,0.484375 0.390625,0.625 0.609375,0.625 0.125,0 0.625,-0.0625 0.625,-0.65625 0,-1.234375 -1.171875,-2.15625 -2.5,-2.15625 -1.8125,0 -3.375,1.6875 -3.375,3.890625 0,2.296875 1.625,3.859375 3.375,3.859375 2.140625,0 2.671875,-1.984375 2.671875,-2.171875 0,-0.0625 -0.015625,-0.125 -0.140625,-0.125 -0.109375,0 -0.125,0.015625 -0.203125,0.25 C 5.8125,-0.515625 4.84375,-0.171875 4.09375,-0.171875 3,-0.171875 1.671875,-1.1875 1.671875,-3.734375 c 0,-2.625 1.265625,-3.5625 2.28125,-3.5625 0.671875,0 1.671875,0.328125 2.0625,1.265625 z m 0,0"
             id="path38" />
        </g>
      </g>
      <g
         fill="#000000"
         fill-opacity="1"
         id="g22"
         transform="matrix(0.352778,0,0,0.352778,-0.890499,-0.703748)">
        <g
           id="use21"
           transform="translate(62.255508,13.948)">
          <path
             d="m 11.640625,-5.234375 c 0,-0.859375 -0.15625,-2.3125 -2.203125,-2.3125 -1.171875,0 -1.984375,0.796875 -2.296875,1.734375 H 7.125 C 6.921875,-7.234375 5.90625,-7.546875 4.9375,-7.546875 c -1.359375,0 -2.0625,1.0625 -2.3125,1.75 H 2.59375 v -1.75 l -2.03125,0.1875 v 0.453125 c 1.015625,0 1.171875,0.109375 1.171875,0.9375 v 4.78125 c 0,0.65625 -0.0625,0.734375 -1.171875,0.734375 V 0 c 0.421875,-0.03125 1.171875,-0.03125 1.625,-0.03125 0.453125,0 1.21875,0 1.640625,0.03125 v -0.453125 c -1.109375,0 -1.171875,-0.0625 -1.171875,-0.734375 V -4.5 c 0,-1.578125 0.953125,-2.765625 2.171875,-2.765625 1.265625,0 1.40625,1.140625 1.40625,1.96875 V -1.1875 c 0,0.65625 -0.0625,0.734375 -1.171875,0.734375 V 0 c 0.40625,-0.03125 1.171875,-0.03125 1.625,-0.03125 0.4375,0 1.21875,0 1.625,0.03125 v -0.453125 c -1.09375,0 -1.171875,-0.0625 -1.171875,-0.734375 V -4.5 c 0,-1.578125 0.96875,-2.765625 2.171875,-2.765625 1.28125,0 1.421875,1.140625 1.421875,1.96875 V -1.1875 c 0,0.65625 -0.07813,0.734375 -1.171875,0.734375 V 0 c 0.40625,-0.03125 1.171875,-0.03125 1.609375,-0.03125 0.453125,0 1.21875,0 1.640625,0.03125 v -0.453125 c -1.109375,0 -1.171875,-0.0625 -1.171875,-0.734375 z m 0,0"
             id="path85" />
        </g>
        <g
           id="use22"
           transform="translate(75.547516,13.948)">
          <path
             d="m 7.421875,-3.6875 c 0,-2.203125 -1.609375,-3.921875 -3.484375,-3.921875 -1.875,0 -3.46875,1.71875 -3.46875,3.921875 0,2.171875 1.59375,3.828125 3.46875,3.828125 1.875,0 3.484375,-1.65625 3.484375,-3.828125 z M 3.9375,-0.171875 c -0.796875,0 -1.5,-0.484375 -1.890625,-1.15625 C 1.625,-2.09375 1.5625,-3.0625 1.5625,-3.828125 c 0,-0.71875 0.03125,-1.609375 0.484375,-2.390625 0.34375,-0.5625 1.015625,-1.109375 1.890625,-1.109375 0.78125,0 1.4375,0.421875 1.84375,1.03125 0.53125,0.796875 0.53125,1.9375 0.53125,2.46875 0,0.671875 -0.03125,1.703125 -0.5,2.53125 -0.46875,0.796875 -1.21875,1.125 -1.875,1.125 z m 0,0"
             id="path86" />
        </g>
      </g>
      <g
         fill="#000000"
         fill-opacity="1"
         id="g30"
         transform="matrix(0.352778,0,0,0.352778,-0.890499,-0.703748)">
        <g
           id="use23"
           transform="translate(83.890099,13.948)">
          <path
             d="m 5.03125,-11.765625 v 0.453125 c 1.015625,0 1.171875,0.109375 1.171875,0.921875 v 4.03125 C 6.125,-6.4375 5.421875,-7.546875 4.03125,-7.546875 c -1.765625,0 -3.46875,1.578125 -3.46875,3.84375 0,2.25 1.609375,3.84375 3.296875,3.84375 1.46875,0 2.21875,-1.140625 2.3125,-1.265625 V 0.140625 L 8.25,0 v -0.453125 c -1.015625,0 -1.171875,-0.09375 -1.171875,-0.921875 V -11.953125 Z M 6.171875,-2.0625 c 0,0.515625 -0.3125,0.984375 -0.71875,1.328125 -0.578125,0.515625 -1.171875,0.59375 -1.5,0.59375 -0.484375,0 -2.28125,-0.25 -2.28125,-3.546875 0,-3.375 2,-3.578125 2.4375,-3.578125 0.796875,0 1.4375,0.453125 1.828125,1.0625 0.234375,0.359375 0.234375,0.421875 0.234375,0.734375 z m 0,0"
             id="path40" />
        </g>
        <g
           id="use24"
           transform="translate(92.685448,13.948)">
          <path
             d="m 5.0625,-7.359375 v 0.453125 c 1.015625,0 1.171875,0.109375 1.171875,0.9375 v 3.125 c 0,1.453125 -0.78125,2.703125 -2.046875,2.703125 -1.421875,0 -1.53125,-0.84375 -1.53125,-1.734375 v -5.671875 l -2.09375,0.1875 v 0.453125 c 0.6875,0 1.15625,0 1.171875,0.6875 v 3.3125 c 0,1.15625 0,1.890625 0.453125,2.375 0.21875,0.21875 0.65625,0.671875 1.890625,0.671875 1.46875,0 2.03125,-1.25 2.171875,-1.609375 H 6.265625 V 0.140625 L 8.3125,0 v -0.453125 c -1.015625,0 -1.171875,-0.09375 -1.171875,-0.921875 v -6.171875 z m 0,0"
             id="path41" />
        </g>
        <g
           id="use25"
           transform="translate(101.4808,13.948)">
          <path
             d="m 2.640625,-11.953125 -2.0625,0.1875 v 0.453125 c 1.015625,0 1.171875,0.109375 1.171875,0.921875 V -1.1875 c 0,0.65625 -0.0625,0.734375 -1.171875,0.734375 V 0 C 1,-0.03125 1.75,-0.03125 2.1875,-0.03125 c 0.453125,0 1.203125,0 1.625,0.03125 v -0.453125 c -1.109375,0 -1.171875,-0.0625 -1.171875,-0.734375 z m 0,0"
             id="path88" />
        </g>
        <g
           id="use26"
           transform="translate(105.77776,13.948)">
          <path
             d="m 6.203125,-4.453125 c 0,-1.140625 0,-1.75 -0.734375,-2.421875 -0.625,-0.5625 -1.375,-0.734375 -1.953125,-0.734375 -1.359375,0 -2.34375,1.0625 -2.34375,2.203125 0,0.640625 0.515625,0.671875 0.625,0.671875 0.21875,0 0.609375,-0.140625 0.609375,-0.625 0,-0.421875 -0.328125,-0.609375 -0.609375,-0.609375 -0.078125,0 -0.15625,0.015625 -0.21875,0.03125 0.375,-1.09375 1.296875,-1.390625 1.90625,-1.390625 0.859375,0 1.796875,0.75 1.796875,2.203125 v 0.75 C 4.265625,-4.34375 3.046875,-4.203125 2.078125,-3.6875 1,-3.078125 0.6875,-2.21875 0.6875,-1.5625 c 0,1.328125 1.546875,1.703125 2.46875,1.703125 0.9375,0 1.8125,-0.53125 2.203125,-1.515625 0.03125,0.75 0.515625,1.4375 1.265625,1.4375 0.359375,0 1.28125,-0.234375 1.28125,-1.59375 V -2.5 h -0.3125 v 0.984375 c 0,1.046875 -0.46875,1.1875 -0.6875,1.1875 -0.703125,0 -0.703125,-0.890625 -0.703125,-1.65625 z m -0.921875,2.0625 c 0,1.5 -1.0625,2.25 -2.015625,2.25 -0.859375,0 -1.53125,-0.640625 -1.53125,-1.421875 0,-0.515625 0.234375,-1.4375 1.234375,-1.984375 0.8125,-0.46875 1.765625,-0.53125 2.3125,-0.5625 z m 0,0"
             id="path43" />
        </g>
        <g
           id="use27"
           transform="translate(113.67274,13.948)">
          <path
             d="M 2.59375,-6.953125 H 5.015625 V -7.40625 H 2.59375 v -3.1875 H 2.296875 C 2.25,-8.8125 1.65625,-7.265625 0.1875,-7.234375 v 0.28125 h 1.5 V -2.125 c 0,0.328125 0,2.265625 2,2.265625 1.015625,0 1.59375,-1 1.59375,-2.28125 v -0.96875 h -0.3125 v 0.953125 c 0,1.1875 -0.453125,1.984375 -1.1875,1.984375 -0.5,0 -1.1875,-0.34375 -1.1875,-1.90625 z m 0,0"
             id="path89" />
        </g>
        <g
           id="use28"
           transform="translate(119.76871,13.948)">
          <path
             d="m 2.671875,-10.609375 c 0,-0.375 -0.3125,-0.703125 -0.703125,-0.703125 -0.390625,0 -0.71875,0.3125 -0.71875,0.703125 0,0.375 0.3125,0.703125 0.71875,0.703125 0.375,0 0.703125,-0.296875 0.703125,-0.703125 z m -2.015625,3.25 v 0.453125 c 0.96875,0 1.09375,0.109375 1.09375,0.9375 v 4.78125 c 0,0.65625 -0.0625,0.734375 -1.171875,0.734375 V 0 C 1,-0.03125 1.734375,-0.03125 2.171875,-0.03125 c 0.40625,0 1.109375,0 1.515625,0.03125 v -0.453125 c -1.015625,0 -1.046875,-0.09375 -1.046875,-0.71875 v -6.375 z m 0,0"
             id="path45" />
        </g>
        <g
           id="use29"
           transform="translate(124.06568,13.948)">
          <path
             d="m 7.421875,-3.6875 c 0,-2.203125 -1.609375,-3.921875 -3.484375,-3.921875 -1.875,0 -3.46875,1.71875 -3.46875,3.921875 0,2.171875 1.59375,3.828125 3.46875,3.828125 1.875,0 3.484375,-1.65625 3.484375,-3.828125 z M 3.9375,-0.171875 c -0.796875,0 -1.5,-0.484375 -1.890625,-1.15625 C 1.625,-2.09375 1.5625,-3.0625 1.5625,-3.828125 c 0,-0.71875 0.03125,-1.609375 0.484375,-2.390625 0.34375,-0.5625 1.015625,-1.109375 1.890625,-1.109375 0.78125,0 1.4375,0.421875 1.84375,1.03125 0.53125,0.796875 0.53125,1.9375 0.53125,2.46875 0,0.671875 -0.03125,1.703125 -0.5,2.53125 -0.46875,0.796875 -1.21875,1.125 -1.875,1.125 z m 0,0"
             id="path90" />
        </g>
        <g
           id="use30"
           transform="translate(131.96066,13.948)">
          <path
             d="m 7.140625,-5.234375 c 0,-0.875 -0.171875,-2.3125 -2.203125,-2.3125 -1.359375,0 -2.0625,1.0625 -2.3125,1.75 H 2.59375 v -1.75 l -2.03125,0.1875 v 0.453125 c 1.015625,0 1.171875,0.109375 1.171875,0.9375 v 4.78125 c 0,0.65625 -0.0625,0.734375 -1.171875,0.734375 V 0 c 0.421875,-0.03125 1.171875,-0.03125 1.625,-0.03125 0.453125,0 1.21875,0 1.640625,0.03125 v -0.453125 c -1.109375,0 -1.171875,-0.0625 -1.171875,-0.734375 V -4.5 c 0,-1.578125 0.953125,-2.765625 2.171875,-2.765625 1.265625,0 1.40625,1.140625 1.40625,1.96875 V -1.1875 c 0,0.65625 -0.0625,0.734375 -1.171875,0.734375 V 0 c 0.40625,-0.03125 1.171875,-0.03125 1.625,-0.03125 0.4375,0 1.21875,0 1.625,0.03125 v -0.453125 c -1.09375,0 -1.171875,-0.0625 -1.171875,-0.734375 z m 0,0"
             id="path47" />
        </g>
      </g>
    </g>
    <path
       style="fill:#1a1a1a;fill-opacity:1;stroke:#1a1a1a;stroke-width:0.759306;stroke-dasharray:1.51861, 0.759306;stroke-dashoffset:0;stroke-opacity:1"
       d="M 33.019007,56.116616 V 42.180598"
       id="path16-9" />
    <path
       style="fill:#1a1a1a;fill-opacity:1;stroke:#1a1a1a;stroke-width:0.759306;stroke-dasharray:1.51861, 0.759306;stroke-dashoffset:0;stroke-opacity:1"
       d="M 52.599903,56.162652 V 42.226634"
       id="path16-9-3" />
    <path
       style="fill:#1a1a1a;fill-opacity:1;stroke:#1a1a1a;stroke-width:0.759306;stroke-dasharray:none;stroke-dashoffset:0;stroke-opacity:1"
       d="M 32.665064,55.843523 H 52.911081"
       id="path17-5" />
    <path
       style="fill:#1a1a1a;fill-opacity:1;stroke:#1a1a1a;stroke-width:0.759306;stroke-dasharray:none;stroke-dashoffset:0;stroke-opacity:1"
       d="m 52.256568,42.364341 h 20.24599"
       id="path17-0" />
    <path
       style="fill:#000000;fill-opacity:1;stroke:#000000;stroke-width:0.693791;stroke-dasharray:none;stroke-opacity:1;marker-start:url(#Triangle-2-9-7);marker-end:url(#Triangle-2-9-7)"
       d="m 15.88158,51.525833 c 34.538211,-0.03587 34.538211,-0.03587 34.538211,-0.03587"
       id="path3-3-9-0" />
    <g
       inkscape:label=""
       transform="matrix(1.3812953,0,0,1.3812953,73.984246,14.240623)"
       id="g43898-8-8-9">
      <g
         clip-path="url(#clipPath7300-7-5-5)"
         id="g27-0-4-7"
         transform="matrix(0.352778,0,0,0.352778,-0.722092,0.00383637)">
        <g
           fill="#000000"
           fill-opacity="1"
           id="g25-7-1-6">
          <g
             id="use19-6-1-1"
             transform="translate(0,12.911)">
            <path
               d="m 2.734375,-12.296875 c 0,-0.3125 0,-0.625 -0.34375,-0.625 -0.34375,0 -0.34375,0.3125 -0.34375,0.625 V 3.6875 c 0,0.3125 0,0.625 0.34375,0.625 0.34375,0 0.34375,-0.3125 0.34375,-0.625 z m 0,0"
               id="path33-3-3-6" />
          </g>
          <g
             id="use21-0-5-3"
             transform="translate(4.7824378,12.911)">
            <path
               d="m 4.65625,-9.5625 c 0.40625,0.65625 0.890625,1.140625 1.3125,1.46875 C 7.03125,-7.296875 8.078125,-7.125 8.109375,-7.125 8.3125,-7.125 8.3125,-7.3125 8.3125,-7.453125 8.3125,-7.734375 8.296875,-7.75 7.921875,-7.875 6.75,-8.203125 6.078125,-8.8125 5.6875,-9.25 4.796875,-10.1875 4.59375,-11.234375 4.5,-11.78125 4.484375,-11.859375 4.40625,-11.9375 4.3125,-11.9375 c -0.15625,0 -0.1875,0.109375 -0.21875,0.3125 -0.390625,1.90625 -1.609375,3.25 -3.515625,3.796875 -0.25,0.078125 -0.28125,0.078125 -0.28125,0.375 0,0.140625 0,0.328125 0.203125,0.328125 0.046875,0 1.0625,-0.1875 2.046875,-0.90625 0.5625,-0.421875 1.03125,-0.9375 1.40625,-1.53125 V 2.71875 c 0,0.3125 0,0.625 0.359375,0.625 0.34375,0 0.34375,-0.3125 0.34375,-0.625 z m 0,0"
               id="path37-7-3-7" />
          </g>
          <g
             id="use23-3-6-1"
             transform="translate(13.390138,12.911)">
            <path
               d="M 4.703125,-4.015625 C 4.78125,-4.21875 4.78125,-4.25 4.78125,-4.3125 c 0,-0.046875 0,-0.078125 -0.078125,-0.28125 L 1.6875,-12.515625 c -0.109375,-0.296875 -0.203125,-0.40625 -0.390625,-0.40625 -0.1875,0 -0.34375,0.15625 -0.34375,0.359375 0,0.04687 0,0.07813 0.078125,0.265625 L 4.078125,-4.3125 1.03125,3.65625 C 0.953125,3.84375 0.953125,3.875 0.953125,3.953125 c 0,0.203125 0.15625,0.359375 0.34375,0.359375 0.21875,0 0.28125,-0.1875 0.359375,-0.359375 z m 0,0"
               id="path41-5-8-2" />
          </g>
        </g>
      </g>
    </g>
    <g
       inkscape:label=""
       transform="matrix(1.3812953,0,0,1.3812953,74.264951,35.746088)"
       id="g44277-2-2-4">
      <g
         clip-path="url(#clipPath6908-8-4-1)"
         id="g44275-6-4-3"
         transform="matrix(0.352778,0,0,0.352778,-0.722092,0.00383637)">
        <g
           fill="#000000"
           fill-opacity="1"
           id="g44273-4-5-4">
          <g
             id="g44263-0-7-4"
             transform="translate(0,12.911)">
            <path
               d="m 2.734375,-12.296875 c 0,-0.3125 0,-0.625 -0.34375,-0.625 -0.34375,0 -0.34375,0.3125 -0.34375,0.625 V 3.6875 c 0,0.3125 0,0.625 0.34375,0.625 0.34375,0 0.34375,-0.3125 0.34375,-0.625 z m 0,0"
               id="path44261-4-5-3" />
          </g>
          <g
             id="g44267-5-6-0"
             transform="translate(4.7824378,12.911)">
            <path
               d="m 4.65625,-11.328125 c 0,-0.3125 0,-0.625 -0.34375,-0.625 -0.359375,0 -0.359375,0.3125 -0.359375,0.625 V 0.953125 C 3.546875,0.296875 3.0625,-0.1875 2.640625,-0.515625 1.578125,-1.3125 0.53125,-1.484375 0.5,-1.484375 c -0.203125,0 -0.203125,0.1875 -0.203125,0.328125 0,0.28125 0.015625,0.296875 0.390625,0.421875 1.171875,0.328125 1.84375,0.9375 2.234375,1.375 C 3.8125,1.578125 4.015625,2.625 4.109375,3.15625 4.125,3.234375 4.1875,3.328125 4.3125,3.328125 c 0.140625,0 0.171875,-0.125 0.203125,-0.28125 0.375,-1.9375 1.609375,-3.28125 3.515625,-3.828125 0.25,-0.078125 0.28125,-0.078125 0.28125,-0.375 0,-0.140625 0,-0.328125 -0.203125,-0.328125 -0.046875,0 -1.0625,0.1875 -2.046875,0.90625 C 5.5,-0.15625 5.03125,0.359375 4.65625,0.953125 Z m 0,0"
               id="path44265-3-5-3" />
          </g>
          <g
             id="g44271-8-8-5"
             transform="translate(13.390138,12.911)">
            <path
               d="M 4.703125,-4.015625 C 4.78125,-4.21875 4.78125,-4.25 4.78125,-4.3125 c 0,-0.046875 0,-0.078125 -0.078125,-0.28125 L 1.6875,-12.515625 c -0.109375,-0.296875 -0.203125,-0.40625 -0.390625,-0.40625 -0.1875,0 -0.34375,0.15625 -0.34375,0.359375 0,0.04687 0,0.07813 0.078125,0.265625 L 4.078125,-4.3125 1.03125,3.65625 C 0.953125,3.84375 0.953125,3.875 0.953125,3.953125 c 0,0.203125 0.15625,0.359375 0.34375,0.359375 0.21875,0 0.28125,-0.1875 0.359375,-0.359375 z m 0,0"
               id="path44269-6-0-7" />
          </g>
        </g>
      </g>
    </g>
    <path
       style="opacity:0.322638;fill:#0000ff;stroke-width:0.560806;stroke-opacity:0.0056497"
       d="m 12.069219,15.345093 c 59.174717,0 59.174717,0 59.174717,0"
       id="path52" />
    <rect
       style="fill:#ff0000;fill-opacity:0.297552;stroke:#000000;stroke-width:0.50663;stroke-dasharray:none"
       id="rect1-4-1"
       width="69.908928"
       height="8.6163769"
       x="9.205307"
       y="4.1190486" />
    <g
       inkscape:label=""
       transform="matrix(1.4845685,0,0,1.4845685,2.7910567,25.293804)"
       id="g214"><g
   fill="#000000"
   fill-opacity="1"
   id="g211"
   transform="matrix(0.352778,0,0,0.352778,-0.774744,-0.633456)">&#10;    <g
   id="g210"
   transform="translate(1.993,9.4049997)">&#10;      <path
   d="m 10.234375,-6.46875 c 0,-0.5 -0.140625,-1.140625 -0.75,-1.140625 -0.34375,0 -0.734375,0.421875 -0.734375,0.78125 0,0.140625 0.0625,0.25 0.203125,0.40625 0.265625,0.296875 0.59375,0.75 0.59375,1.5625 0,0.625 -0.390625,1.609375 -0.65625,2.140625 -0.484375,0.9375 -1.28125,1.75 -2.171875,1.75 -1.09375,0 -1.5,-0.6875 -1.6875,-1.65625 0.1875,-0.4375 0.578125,-1.5625 0.578125,-2 0,-0.203125 -0.0625,-0.34375 -0.28125,-0.34375 -0.125,0 -0.265625,0.0625 -0.359375,0.203125 -0.234375,0.375 -0.453125,1.734375 -0.4375,2.09375 -0.328125,0.640625 -1.265625,1.703125 -2.359375,1.703125 -1.15625,0 -1.46875,-1.015625 -1.46875,-2 0,-1.78125 1.125,-3.34375 1.4375,-3.78125 0.171875,-0.265625 0.28125,-0.4375 0.28125,-0.46875 0,-0.109375 -0.0625,-0.3125 -0.21875,-0.3125 -0.28125,0 -0.359375,0.234375 -0.5,0.4375 -0.875,1.359375 -1.5,3.265625 -1.5,4.921875 0,1.0625 0.40625,2.34375 1.6875,2.34375 1.4375,0 2.328125,-1.21875 2.6875,-1.875 0.140625,0.96875 0.65625,1.875 1.90625,1.875 1.3125,0 2.140625,-1.15625 2.765625,-2.546875 0.4375,-1 0.984375,-3.15625 0.984375,-4.09375 z m 0,0"
   id="path210" />
&#10;    </g>
&#10;  </g>
&#10;  <g
   fill="#000000"
   fill-opacity="1"
   id="g213"
   transform="matrix(0.352778,0,0,0.352778,-0.774744,-0.633456)">&#10;    <g
   id="g212"
   transform="translate(12.489,11.987)">&#10;      <path
   d="m 5.359375,-3.828125 c 0,-0.984375 -0.0625,-1.953125 -0.5,-2.859375 -0.484375,-1 -1.34375,-1.265625 -1.9375,-1.265625 -0.6875,0 -1.53125,0.34375 -1.984375,1.34375 -0.328125,0.75 -0.453125,1.5 -0.453125,2.78125 0,1.15625 0.09375,2.03125 0.515625,2.890625 0.46875,0.90625 1.296875,1.1875 1.921875,1.1875 1.03125,0 1.625,-0.625 1.984375,-1.3125 0.421875,-0.890625 0.453125,-2.0625 0.453125,-2.765625 z m -2.4375,3.84375 C 2.53125,0.015625 1.75,-0.203125 1.53125,-1.5 c -0.125,-0.71875 -0.125,-1.625 -0.125,-2.46875 0,-0.984375 0,-1.859375 0.1875,-2.5625 0.203125,-0.8125 0.8125,-1.171875 1.328125,-1.171875 0.453125,0 1.140625,0.265625 1.375,1.296875 0.15625,0.6875 0.15625,1.625 0.15625,2.4375 0,0.796875 0,1.703125 -0.140625,2.4375 -0.21875,1.3125 -0.984375,1.546875 -1.390625,1.546875 z m 0,0"
   id="path211" />
&#10;    </g>
&#10;  </g>
&#10;</g>
  </g>
</svg>
