<?xml version="1.0" encoding="UTF-8" standalone="no"?>
<!-- Created with Inkscape (http://www.inkscape.org/) -->

<svg
   width="220mm"
   height="100mm"
   viewBox="0 0 220 100"
   version="1.1"
   id="svg1"
   inkscape:version="1.3 (0e150ed6c4, 2023-07-21)"
   sodipodi:docname="stroboscopic.svg"
   inkscape:export-filename="stroboscopic.png"
   inkscape:export-xdpi="96"
   inkscape:export-ydpi="96"
   xmlns:inkscape="http://www.inkscape.org/namespaces/inkscape"
   xmlns:sodipodi="http://sodipodi.sourceforge.net/DTD/sodipodi-0.dtd"
   xmlns="http://www.w3.org/2000/svg"
   xmlns:svg="http://www.w3.org/2000/svg">
  <sodipodi:namedview
     id="namedview1"
     pagecolor="#ffffff"
     bordercolor="#000000"
     borderopacity="0.25"
     inkscape:showpageshadow="2"
     inkscape:pageopacity="0.0"
     inkscape:pagecheckerboard="0"
     inkscape:deskcolor="#d1d1d1"
     inkscape:document-units="mm"
     inkscape:zoom="0.97890839"
     inkscape:cx="302.8884"
     inkscape:cy="258.96192"
     inkscape:window-width="1920"
     inkscape:window-height="991"
     inkscape:window-x="-9"
     inkscape:window-y="-9"
     inkscape:window-maximized="1"
     inkscape:current-layer="layer1" />
  <defs
     id="defs1">
    <marker
       style="overflow:visible"
       id="Triangle"
       refX="0"
       refY="0"
       orient="auto-start-reverse"
       inkscape:stockid="Triangle arrow"
       markerWidth="1"
       markerHeight="1"
       viewBox="0 0 1 1"
       inkscape:isstock="true"
       inkscape:collect="always"
       preserveAspectRatio="xMidYMid">
      <path
         transform="scale(0.5)"
         style="fill:context-stroke;fill-rule:evenodd;stroke:context-stroke;stroke-width:1pt"
         d="M 5.77,0 -2.88,5 V -5 Z"
         id="path135" />
    </marker>
    <marker
       style="overflow:visible"
       id="Triangle-9"
       refX="0"
       refY="0"
       orient="auto-start-reverse"
       inkscape:stockid="Triangle arrow"
       markerWidth="1"
       markerHeight="1"
       viewBox="0 0 1 1"
       inkscape:isstock="true"
       inkscape:collect="always"
       preserveAspectRatio="xMidYMid">
      <path
         transform="scale(0.5)"
         style="fill:context-stroke;fill-rule:evenodd;stroke:context-stroke;stroke-width:1pt"
         d="M 5.77,0 -2.88,5 V -5 Z"
         id="path135-1" />
    </marker>
  </defs>
  <g
     inkscape:label="Layer 1"
     inkscape:groupmode="layer"
     id="layer1">
    <path
       style="fill:none;stroke:#377eb8;stroke-width:0.910576;stroke-opacity:1"
       d="m 14.295988,42.84004 c 1.304067,-2.855181 2.607913,-5.115122 3.911979,-2.516178 1.303847,2.598943 2.607914,10.035117 3.911759,16.028184 1.304066,5.992818 2.607911,9.24884 3.911976,4.790075 1.303847,-4.458774 2.607912,-16.664087 3.911757,-28.534248 1.304067,-11.86992 2.607914,-21.931503 3.911976,-21.921879 1.303848,0.0094 2.607912,10.384946 3.911758,24.208285 1.304066,13.823344 2.607911,29.596487 3.911978,36.280789 1.303845,6.684302 2.60791,3.663592 3.911755,-5.804923 1.304066,-9.468256 2.607912,-24.080521 3.911978,-33.122929 1.303846,-9.042408 2.60791,-11.738794 3.911757,-8.386297 1.304065,3.352739 2.60791,11.697893 3.911977,16.975178 1.303845,5.277041 2.607909,6.756477 3.911757,4.854551 1.304066,-1.901928 2.60791,-6.216579 3.911976,-6.590228 1.303845,-0.37389 2.60791,3.848852 3.911757,10.128232 1.304065,6.279371 2.60791,13.55146 3.911976,14.091361 1.303846,0.539902 2.60791,-6.408585 3.911758,-17.504015 1.304064,-11.095672 2.607909,-25.18872 3.911976,-31.485901 1.304064,-6.2971822 2.607912,-3.767049 3.911978,6.639552 1.303844,10.4066 2.60791,27.655102 3.911755,39.549559 1.304065,11.894218 2.607912,17.15659 3.911979,12.829181 1.303843,-4.3274 2.607909,-17.504494 3.911757,-29.200697 1.304062,-11.696208 2.60791,-20.597866 3.911973,-21.687777 1.30385,-1.08991 2.60793,5.153858 3.91179,11.597803 1.30406,6.443946 2.60792,11.907692 3.91199,12.486096 1.30385,0.578395 2.60792,-3.310636 3.91178,-5.737071 1.30407,-2.426195 2.60791,-2.293383 3.91197,2.200272 1.30385,4.493653 2.60792,12.852288 3.91176,17.335592 1.30407,4.483065 2.60791,3.878686 3.91198,-3.773535 1.30385,-7.65224 2.60791,-21.861257 3.91176,-32.482231 1.30406,-10.620733 2.60791,-16.2100742 3.91197,-11.687546 1.30385,4.522527 2.60791,18.887693 3.91176,33.114274 1.30407,14.226342 2.60791,26.749489 3.91198,29.04792 1.30384,2.298192 2.60791,-5.693278 3.91175,-17.111603 1.30407,-11.418067 2.60791,-24.804239 3.91198,-30.925783 1.30385,-6.121545 2.60791,-4.694074 3.91176,0.666698 1.30406,5.360531 2.60791,13.406863 3.91197,17.001883 1.30385,3.595015 2.60791,2.449769 3.91198,-0.295696 1.30385,-2.745467 2.60791,-5.93508 3.91176,-4.357958 1.30406,1.577122 2.60791,8.138478 3.91197,14.490513 1.30385,6.351796 2.60791,11.231128 3.91176,8.469553 1.30407,-2.761834 2.60791,-13.455232 3.91198,-25.412485 1.30384,-11.957257 2.60791,-23.766306 3.91175,-25.987029 1.30407,-2.2207222 2.60791,5.711083 3.91198,18.74598 1.30385,13.034658 2.60792,29.78367 3.91177,38.448338 1.30405,8.664668 2.6079,8.377398 3.91197,0.365233 1.30385,-8.011926 2.60792,-22.593382 3.91176,-32.797407 1.30405,-10.204018 2.6079,-15.040527 3.91197,-13.016613 1.30385,2.023673 2.60792,10.010335 3.91087,15.893447"
       title="sin(2*x)*cos(10*x)"
       id="path1"
       sodipodi:nodetypes="cccccccccccccccccsccccccccccccccccccccccccccccccc" />
    <path
       style="fill:none;stroke:#000000;stroke-width:0.896;stroke-dasharray:none;marker-start:url(#Triangle)"
       d="m 108.38061,10.811362 c 0,81.085218 0,81.085218 0,81.085218"
       id="path2" />
    <path
       style="fill:none;stroke:#000000;stroke-width:1.015;stroke-dasharray:none;marker-start:url(#Triangle-9)"
       d="m 214.84691,46.557645 c -200.96238,0 -200.96238,0 -200.96238,0"
       id="path2-0" />
    <ellipse
       style="fill:#ff0000;fill-opacity:1;stroke:#000000;stroke-width:1.027;stroke-dasharray:none"
       id="path3"
       cx="24.997929"
       cy="59.597633"
       rx="3.3785505"
       ry="3.6488347" />
    <ellipse
       style="fill:#ff0000;fill-opacity:1;stroke:#000000;stroke-width:1.027;stroke-dasharray:none"
       id="path3-3"
       cx="73.25515"
       cy="59.597336"
       rx="3.3785505"
       ry="3.6488347" />
    <ellipse
       style="fill:#ff0000;fill-opacity:1;stroke:#000000;stroke-width:1.027;stroke-dasharray:none"
       id="path3-5"
       cx="121.39217"
       cy="59.597641"
       rx="3.3785505"
       ry="3.6488347" />
    <ellipse
       style="fill:#ff0000;fill-opacity:1;stroke:#000000;stroke-width:1.027;stroke-dasharray:none"
       id="path3-3-0"
       cx="169.64926"
       cy="59.597336"
       rx="3.3785505"
       ry="3.6488347" />
    <path
       style="fill:#000000;fill-opacity:1;stroke:#000000;stroke-width:1.027;stroke-dasharray:none"
       d="m 24.322222,46.488857 v 9.730227"
       id="path4" />
    <path
       style="fill:#000000;fill-opacity:1;stroke:#000000;stroke-width:1.027;stroke-dasharray:none"
       d="m 72.888625,46.954315 v 9.730227"
       id="path4-1" />
    <path
       style="fill:#000000;fill-opacity:1;stroke:#000000;stroke-width:1.027;stroke-dasharray:none"
       d="m 120.9218,46.280629 v 9.730227"
       id="path4-13" />
    <path
       style="fill:#000000;fill-opacity:1;stroke:#000000;stroke-width:1.027;stroke-dasharray:none"
       d="m 169.48821,46.746087 v 9.730227"
       id="path4-1-9" />
    <g
       inkscape:label=""
       transform="translate(153.92348,48.786264)"
       id="g5">
      <g
         fill="#000000"
         fill-opacity="1"
         id="g2"
         transform="matrix(0.352778,0,0,0.352778,-0.912548,-0.752519)">
        <g
           id="use1"
           transform="translate(1.993,18.93)">
          <path
             d="m 10.328125,-15.109375 c 0.15625,-0.609375 0.203125,-0.828125 0.578125,-0.921875 0.203125,-0.04687 1.015625,-0.04687 1.53125,-0.04687 2.484375,0 3.640625,0.09375 3.640625,2.03125 0,0.375 -0.09375,1.3125 -0.25,2.21875 l -0.01563,0.3125 c 0,0.09375 0.09375,0.234375 0.25,0.234375 0.25,0 0.25,-0.125 0.3125,-0.515625 l 0.71875,-4.390625 c 0.0625,-0.21875 0.0625,-0.265625 0.0625,-0.34375 0,-0.265625 -0.15625,-0.265625 -0.65625,-0.265625 H 2.953125 c -0.578125,0 -0.59375,0.01563 -0.75,0.46875 L 0.6875,-11.875 c -0.015625,0.04687 -0.09375,0.328125 -0.09375,0.359375 0,0.109375 0.09375,0.234375 0.25,0.234375 0.203125,0 0.25,-0.09375 0.34375,-0.421875 1.046875,-2.984375 1.5625,-4.375 4.859375,-4.375 h 1.65625 c 0.59375,0 0.84375,0 0.84375,0.265625 0,0.07813 0,0.125 -0.125,0.578125 L 5.109375,-1.9375 c -0.25,0.96875 -0.296875,1.21875 -2.921875,1.21875 -0.625,0 -0.796875,0 -0.796875,0.46875 C 1.390625,0 1.65625,0 1.78125,0 2.40625,0 3.046875,-0.046875 3.671875,-0.046875 H 7.53125 C 8.15625,-0.046875 8.828125,0 9.4375,0 c 0.28125,0 0.53125,0 0.53125,-0.46875 0,-0.25 -0.1875,-0.25 -0.828125,-0.25 -2.234375,0 -2.234375,-0.21875 -2.234375,-0.59375 0,-0.03125 0,-0.203125 0.109375,-0.59375 z m 0,0"
             id="path5" />
        </g>
      </g>
    </g>
    <g
       inkscape:label=""
       transform="translate(202.03404,49.056548)"
       id="g7">
      <g
         fill="#000000"
         fill-opacity="1"
         id="g3"
         transform="matrix(0.352778,0,0,0.352778,-1.06138,-0.752519)">
        <g
           id="use2"
           transform="translate(1.993,18.93)">
          <path
             d="m 10.328125,-3.84375 h -0.4375 C 9.640625,-2.078125 9.4375,-1.78125 9.34375,-1.640625 9.21875,-1.4375 7.4375,-1.4375 7.09375,-1.4375 H 2.328125 c 0.890625,-0.96875 2.625,-2.71875 4.734375,-4.75 1.515625,-1.4375 3.265625,-3.125 3.265625,-5.578125 C 10.328125,-14.6875 8,-16.375 5.40625,-16.375 c -2.734375,0 -4.390625,2.390625 -4.390625,4.625 0,0.96875 0.71875,1.09375 1.015625,1.09375 0.25,0 0.984375,-0.140625 0.984375,-1.015625 0,-0.765625 -0.640625,-0.984375 -0.984375,-0.984375 -0.140625,0 -0.296875,0.01563 -0.390625,0.0625 0.46875,-2.09375 1.90625,-3.140625 3.421875,-3.140625 2.15625,0 3.5625,1.703125 3.5625,3.96875 0,2.15625 -1.265625,4.015625 -2.671875,5.625 L 1.015625,-0.5625 V 0 h 8.71875 z m 0,0"
             id="path6" />
        </g>
      </g>
      <g
         fill="#000000"
         fill-opacity="1"
         id="g4"
         transform="matrix(0.352778,0,0,0.352778,-1.06138,-0.752519)">
        <g
           id="use3"
           transform="translate(13.36,18.93)">
          <path
             d="m 10.328125,-15.109375 c 0.15625,-0.609375 0.203125,-0.828125 0.578125,-0.921875 0.203125,-0.04687 1.015625,-0.04687 1.53125,-0.04687 2.484375,0 3.640625,0.09375 3.640625,2.03125 0,0.375 -0.09375,1.3125 -0.25,2.21875 l -0.01563,0.3125 c 0,0.09375 0.09375,0.234375 0.25,0.234375 0.25,0 0.25,-0.125 0.3125,-0.515625 l 0.71875,-4.390625 c 0.0625,-0.21875 0.0625,-0.265625 0.0625,-0.34375 0,-0.265625 -0.15625,-0.265625 -0.65625,-0.265625 H 2.953125 c -0.578125,0 -0.59375,0.01563 -0.75,0.46875 L 0.6875,-11.875 c -0.015625,0.04687 -0.09375,0.328125 -0.09375,0.359375 0,0.109375 0.09375,0.234375 0.25,0.234375 0.203125,0 0.25,-0.09375 0.34375,-0.421875 1.046875,-2.984375 1.5625,-4.375 4.859375,-4.375 h 1.65625 c 0.59375,0 0.84375,0 0.84375,0.265625 0,0.07813 0,0.125 -0.125,0.578125 L 5.109375,-1.9375 c -0.25,0.96875 -0.296875,1.21875 -2.921875,1.21875 -0.625,0 -0.796875,0 -0.796875,0.46875 C 1.390625,0 1.65625,0 1.78125,0 2.40625,0 3.046875,-0.046875 3.671875,-0.046875 H 7.53125 C 8.15625,-0.046875 8.828125,0 9.4375,0 c 0.28125,0 0.53125,0 0.53125,-0.46875 0,-0.25 -0.1875,-0.25 -0.828125,-0.25 -2.234375,0 -2.234375,-0.21875 -2.234375,-0.59375 0,-0.03125 0,-0.203125 0.109375,-0.59375 z m 0,0"
             id="path7" />
        </g>
      </g>
    </g>
    <g
       inkscape:label=""
       transform="translate(0.94262158,49.8674)"
       id="g11">
      <g
         fill="#000000"
         fill-opacity="1"
         id="g9"
         transform="matrix(0.352778,0,0,0.352778,-1.43069,-0.752519)">
        <g
           id="g8"
           transform="translate(1.993,18.93)">
          <path
             d="m 16.328125,-5.703125 c 0.421875,0 0.875,0 0.875,-0.484375 0,-0.5 -0.453125,-0.5 -0.875,-0.5 H 2.921875 c -0.421875,0 -0.859375,0 -0.859375,0.5 0,0.484375 0.4375,0.484375 0.859375,0.484375 z m 0,0"
             id="path8" />
        </g>
      </g>
      <g
         fill="#000000"
         fill-opacity="1"
         id="g10"
         transform="matrix(0.352778,0,0,0.352778,-1.43069,-0.752519)">
        <g
           id="use4"
           transform="translate(21.271,18.93)">
          <path
             d="m 10.328125,-3.84375 h -0.4375 C 9.640625,-2.078125 9.4375,-1.78125 9.34375,-1.640625 9.21875,-1.4375 7.4375,-1.4375 7.09375,-1.4375 H 2.328125 c 0.890625,-0.96875 2.625,-2.71875 4.734375,-4.75 1.515625,-1.4375 3.265625,-3.125 3.265625,-5.578125 C 10.328125,-14.6875 8,-16.375 5.40625,-16.375 c -2.734375,0 -4.390625,2.390625 -4.390625,4.625 0,0.96875 0.71875,1.09375 1.015625,1.09375 0.25,0 0.984375,-0.140625 0.984375,-1.015625 0,-0.765625 -0.640625,-0.984375 -0.984375,-0.984375 -0.140625,0 -0.296875,0.01563 -0.390625,0.0625 0.46875,-2.09375 1.90625,-3.140625 3.421875,-3.140625 2.15625,0 3.5625,1.703125 3.5625,3.96875 0,2.15625 -1.265625,4.015625 -2.671875,5.625 L 1.015625,-0.5625 V 0 h 8.71875 z m 0,0"
             id="path9" />
        </g>
      </g>
      <g
         fill="#000000"
         fill-opacity="1"
         id="g6"
         transform="matrix(0.352778,0,0,0.352778,-1.43069,-0.752519)">
        <g
           id="use5"
           transform="translate(32.639,18.93)">
          <path
             d="m 10.328125,-15.109375 c 0.15625,-0.609375 0.203125,-0.828125 0.578125,-0.921875 0.203125,-0.04687 1.015625,-0.04687 1.53125,-0.04687 2.484375,0 3.640625,0.09375 3.640625,2.03125 0,0.375 -0.09375,1.3125 -0.25,2.21875 l -0.01563,0.3125 c 0,0.09375 0.09375,0.234375 0.25,0.234375 0.25,0 0.25,-0.125 0.3125,-0.515625 l 0.71875,-4.390625 c 0.0625,-0.21875 0.0625,-0.265625 0.0625,-0.34375 0,-0.265625 -0.15625,-0.265625 -0.65625,-0.265625 H 2.953125 c -0.578125,0 -0.59375,0.01563 -0.75,0.46875 L 0.6875,-11.875 c -0.015625,0.04687 -0.09375,0.328125 -0.09375,0.359375 0,0.109375 0.09375,0.234375 0.25,0.234375 0.203125,0 0.25,-0.09375 0.34375,-0.421875 1.046875,-2.984375 1.5625,-4.375 4.859375,-4.375 h 1.65625 c 0.59375,0 0.84375,0 0.84375,0.265625 0,0.07813 0,0.125 -0.125,0.578125 L 5.109375,-1.9375 c -0.25,0.96875 -0.296875,1.21875 -2.921875,1.21875 -0.625,0 -0.796875,0 -0.796875,0.46875 C 1.390625,0 1.65625,0 1.78125,0 2.40625,0 3.046875,-0.046875 3.671875,-0.046875 H 7.53125 C 8.15625,-0.046875 8.828125,0 9.4375,0 c 0.28125,0 0.53125,0 0.53125,-0.46875 0,-0.25 -0.1875,-0.25 -0.828125,-0.25 -2.234375,0 -2.234375,-0.21875 -2.234375,-0.59375 0,-0.03125 0,-0.203125 0.109375,-0.59375 z m 0,0"
             id="path10" />
        </g>
      </g>
    </g>
    <g
       inkscape:label=""
       transform="translate(52.026315,49.326832)"
       id="g16">
      <g
         fill="#000000"
         fill-opacity="1"
         id="g13"
         transform="matrix(0.352778,0,0,0.352778,-1.43069,-0.752519)">
        <g
           id="g12"
           transform="translate(1.993,18.93)">
          <path
             d="m 16.328125,-5.703125 c 0.421875,0 0.875,0 0.875,-0.484375 0,-0.5 -0.453125,-0.5 -0.875,-0.5 H 2.921875 c -0.421875,0 -0.859375,0 -0.859375,0.5 0,0.484375 0.4375,0.484375 0.859375,0.484375 z m 0,0"
             id="path11" />
        </g>
      </g>
      <g
         fill="#000000"
         fill-opacity="1"
         id="g15"
         transform="matrix(0.352778,0,0,0.352778,-1.43069,-0.752519)">
        <g
           id="g14"
           transform="translate(21.271,18.93)">
          <path
             d="m 10.328125,-15.109375 c 0.15625,-0.609375 0.203125,-0.828125 0.578125,-0.921875 0.203125,-0.04687 1.015625,-0.04687 1.53125,-0.04687 2.484375,0 3.640625,0.09375 3.640625,2.03125 0,0.375 -0.09375,1.3125 -0.25,2.21875 l -0.01563,0.3125 c 0,0.09375 0.09375,0.234375 0.25,0.234375 0.25,0 0.25,-0.125 0.3125,-0.515625 l 0.71875,-4.390625 c 0.0625,-0.21875 0.0625,-0.265625 0.0625,-0.34375 0,-0.265625 -0.15625,-0.265625 -0.65625,-0.265625 H 2.953125 c -0.578125,0 -0.59375,0.01563 -0.75,0.46875 L 0.6875,-11.875 c -0.015625,0.04687 -0.09375,0.328125 -0.09375,0.359375 0,0.109375 0.09375,0.234375 0.25,0.234375 0.203125,0 0.25,-0.09375 0.34375,-0.421875 1.046875,-2.984375 1.5625,-4.375 4.859375,-4.375 h 1.65625 c 0.59375,0 0.84375,0 0.84375,0.265625 0,0.07813 0,0.125 -0.125,0.578125 L 5.109375,-1.9375 c -0.25,0.96875 -0.296875,1.21875 -2.921875,1.21875 -0.625,0 -0.796875,0 -0.796875,0.46875 C 1.390625,0 1.65625,0 1.78125,0 2.40625,0 3.046875,-0.046875 3.671875,-0.046875 H 7.53125 C 8.15625,-0.046875 8.828125,0 9.4375,0 c 0.28125,0 0.53125,0 0.53125,-0.46875 0,-0.25 -0.1875,-0.25 -0.828125,-0.25 -2.234375,0 -2.234375,-0.21875 -2.234375,-0.59375 0,-0.03125 0,-0.203125 0.109375,-0.59375 z m 0,0"
             id="path13" />
        </g>
      </g>
    </g>
    <g
       inkscape:label=""
       transform="translate(111.21859,48.245696)"
       id="g19">
      <g
         fill="#000000"
         fill-opacity="1"
         id="g18"
         transform="matrix(0.352778,0,0,0.352778,-1.03382,-0.56268)">
        <g
           id="g17"
           transform="translate(1.993,17.969999)">
          <path
             d="m 10.40625,-7.953125 c 0,-1.515625 -0.01563,-4.09375 -1.0625,-6.078125 -0.921875,-1.734375 -2.375,-2.34375 -3.671875,-2.34375 -1.1875,0 -2.703125,0.546875 -3.640625,2.328125 -0.984375,1.859375 -1.09375,4.15625 -1.09375,6.09375 0,1.40625 0.03125,3.5625 0.796875,5.453125 1.0625,2.546875 2.96875,2.890625 3.9375,2.890625 1.140625,0 2.875,-0.46875 3.890625,-2.8125 0.75,-1.71875 0.84375,-3.71875 0.84375,-5.53125 z M 5.671875,0 C 4.09375,0 3.140625,-1.359375 2.796875,-3.25 2.53125,-4.703125 2.53125,-6.84375 2.53125,-8.234375 c 0,-1.90625 0,-3.484375 0.3125,-5 0.484375,-2.109375 1.859375,-2.75 2.828125,-2.75 1.015625,0 2.328125,0.671875 2.796875,2.703125 0.328125,1.40625 0.359375,3.078125 0.359375,5.046875 0,1.625 0,3.59375 -0.296875,5.0625 C 8,-0.46875 6.546875,0 5.671875,0 Z m 0,0"
             id="path16" />
        </g>
      </g>
    </g>
  </g>
</svg>
